<?xml version="1.0" encoding="utf-8"?>
<!-- Generator: Adobe Illustrator 27.3.1, SVG Export Plug-In . SVG Version: 6.00 Build 0)  -->
<svg version="1.1" id="Layer_1" xmlns="http://www.w3.org/2000/svg" xmlns:xlink="http://www.w3.org/1999/xlink" x="0px" y="0px"
	 viewBox="0 0 100 100" style="enable-background:new 0 0 100 100;" xml:space="preserve">
<style type="text/css">
	.st0{fill:#FFFFFF;}
</style>
<path class="st0" d="M51.16,29.23c-0.21-0.07-0.43-0.13-0.65-0.16v-2.77c0-1.39,0.78-2.69,2.03-3.39c1.67-0.94,2.7-2.71,2.67-4.63
	c-0.02-1.36-0.56-2.64-1.53-3.61c-0.97-0.97-2.25-1.51-3.61-1.53c-0.03,0-0.05,0-0.08,0c-1.38,0-2.68,0.53-3.66,1.5
	c-1,0.99-1.55,2.31-1.55,3.71c0,0.28,0.23,0.52,0.52,0.52c0.28,0,0.52-0.23,0.52-0.52c0-1.13,0.44-2.19,1.25-2.98
	c0.8-0.79,1.87-1.22,3-1.2c2.24,0.03,4.09,1.88,4.12,4.12c0.02,1.54-0.8,2.96-2.14,3.71c-1.57,0.88-2.55,2.53-2.55,4.29v2.77
	c-0.22,0.03-0.44,0.08-0.65,0.16L11.48,42.15c-1.97,0.68-2.6,2.48-2.35,3.95c0.25,1.48,1.43,2.97,3.51,2.97h74.71
	c2.08,0,3.26-1.49,3.51-2.97c0.25-1.48-0.38-3.27-2.35-3.95 M90.13,45.53c-0.2,1.04-1.13,2.09-2.77,2.09H12.64
	c-1.64,0-2.57-1.05-2.77-2.09c-0.2-1.04,0.3-2.3,1.85-2.78l37.36-11.5c0.19-0.06,0.39-0.1,0.59-0.12c0.22-0.02,0.44-0.02,0.66,0
	c0.2,0.02,0.4,0.06,0.59,0.12l37.36,11.5C89.83,43.23,90.32,44.49,90.13,45.53z"/>
<g>
	<path class="st0" d="M11.1,48.07h8.75v0.58c-0.82,0-1.37,0.11-1.67,0.33c-0.25,0.2-0.45,0.53-0.61,0.99s-0.24,0.97-0.24,1.55
		c0,0.71,0.15,1.69,0.44,2.95l0.36,1.57l4.33,19.3l3.02-16.63c0.39-2.13,0.58-3.72,0.58-4.77c0-0.78-0.08-1.54-0.23-2.27
		c-0.15-0.74-0.35-1.33-0.61-1.79c-0.24-0.44-0.52-0.75-0.83-0.94c-0.31-0.19-0.71-0.28-1.19-0.28v-0.58h8.94v0.58
		c-0.55,0-0.94,0.03-1.19,0.1c-0.25,0.07-0.48,0.21-0.69,0.43c-0.28,0.3-0.5,0.74-0.67,1.31c-0.17,0.57-0.26,1.18-0.26,1.84
		c0,0.61,0.13,1.67,0.39,3.17l3.42,20.13l3.83-17.14c0.59-2.62,0.89-4.66,0.89-6.09c0-1.51-0.27-2.57-0.82-3.2
		c-0.33-0.37-0.84-0.56-1.52-0.56v-0.58h6.44v0.58c-0.62,0.12-1.09,0.33-1.41,0.65c-0.32,0.31-0.64,0.88-0.95,1.71
		c-0.46,1.18-1.04,3.33-1.74,6.42l-5.72,25.29h-0.57l-4.95-27.04l-5.02,27.04h-0.63l-6.22-27.32l-0.42-1.85
		c-0.29-1.25-0.53-2.16-0.72-2.72c-0.19-0.56-0.43-1-0.71-1.32c-0.22-0.27-0.46-0.47-0.72-0.58c-0.26-0.12-0.63-0.21-1.1-0.28V48.07
		z"/>
	<path class="st0" d="M46.01,82.73v-0.58c0.53-0.05,0.96-0.19,1.29-0.41c0.33-0.22,0.63-0.58,0.89-1.07
		c0.29-0.54,0.48-1.23,0.58-2.06c0.1-0.83,0.15-2.12,0.15-3.86l0.01-4.95c0-0.71-0.08-1.5-0.24-2.36c-0.18-1-0.54-2.25-1.08-3.76
		l-3.6-9.88l-0.64-1.78c-0.47-1.29-0.94-2.17-1.39-2.64c-0.23-0.25-0.46-0.43-0.7-0.53c-0.23-0.1-0.56-0.17-0.97-0.2v-0.58h9.07
		v0.58c-0.77,0.08-1.26,0.21-1.47,0.38c-0.52,0.41-0.78,1.14-0.78,2.21c0,0.39,0.06,0.83,0.17,1.32s0.3,1.11,0.56,1.85l3.77,10.77
		l3.23-9.19l0.36-1.04c0.34-0.98,0.51-1.95,0.51-2.89c0-1.08-0.19-1.92-0.57-2.51c-0.38-0.59-0.91-0.89-1.6-0.89v-0.58h6.4v0.58
		c-0.48,0.1-0.85,0.25-1.11,0.44c-0.26,0.19-0.52,0.51-0.79,0.95c-0.63,1.08-1.33,2.7-2.1,4.85l-3.17,8.84
		c-0.38,1.05-0.61,1.82-0.7,2.31c-0.08,0.49-0.12,1.32-0.12,2.49v6.22c0,1.81,0.05,3.11,0.15,3.9c0.1,0.79,0.29,1.46,0.59,2.02
		c0.51,0.98,1.24,1.47,2.18,1.47v0.58H46.01z"/>
	<path class="st0" d="M58.32,48.07h8.75v0.58c-0.82,0-1.37,0.11-1.67,0.33c-0.25,0.2-0.45,0.53-0.61,0.99
		c-0.16,0.46-0.24,0.97-0.24,1.55c0,0.71,0.15,1.69,0.45,2.95l0.36,1.57l4.33,19.3l3.02-16.63c0.39-2.13,0.58-3.72,0.58-4.77
		c0-0.78-0.08-1.54-0.23-2.27s-0.35-1.33-0.61-1.79c-0.24-0.44-0.52-0.75-0.83-0.94c-0.31-0.19-0.71-0.28-1.19-0.28v-0.58h8.94v0.58
		c-0.55,0-0.94,0.03-1.19,0.1c-0.25,0.07-0.48,0.21-0.69,0.43c-0.28,0.3-0.5,0.74-0.67,1.31c-0.17,0.57-0.26,1.18-0.26,1.84
		c0,0.61,0.13,1.67,0.39,3.17l3.42,20.13l3.83-17.14c0.59-2.62,0.89-4.66,0.89-6.09c0-1.51-0.27-2.57-0.82-3.2
		c-0.33-0.37-0.84-0.56-1.52-0.56v-0.58h6.44v0.58c-0.62,0.12-1.09,0.33-1.41,0.65c-0.32,0.31-0.64,0.88-0.95,1.71
		c-0.46,1.18-1.04,3.33-1.74,6.42l-5.72,25.29h-0.57l-4.95-27.04l-5.02,27.04h-0.63l-6.22-27.32l-0.42-1.85
		c-0.29-1.25-0.53-2.16-0.72-2.72c-0.19-0.56-0.43-1-0.71-1.32c-0.22-0.27-0.46-0.47-0.72-0.58c-0.26-0.12-0.63-0.21-1.1-0.28V48.07
		z"/>
</g>
</svg>
